<?xml version="1.0" standalone="no"?>
<!DOCTYPE svg PUBLIC "-//W3C//DTD SVG 20010904//EN"
 "http://www.w3.org/TR/2001/REC-SVG-20010904/DTD/svg10.dtd">
<svg version="1.0" xmlns="http://www.w3.org/2000/svg"
 width="840.000000pt" height="880.000000pt" viewBox="0 0 840.000000 880.000000"
 preserveAspectRatio="xMidYMid meet">

<g transform="translate(0.000000,880.000000) scale(0.100000,-0.100000)"
fill="#000000" stroke="none">
<path d="M3888 8379 c-1779 -147 -3244 -1443 -3598 -3183 -143 -702 -94 -1435
139 -2109 113 -325 249 -599 447 -899 398 -603 949 -1082 1609 -1399 406 -195
852 -320 1325 -371 175 -19 652 -16 833 5 922 109 1740 503 2385 1149 646 645
1040 1463 1149 2385 21 181 24 658 5 833 -119 1100 -639 2050 -1501 2741 -124
99 -377 269 -519 349 -163 91 -552 270 -588 270 -3 0 6 -20 20 -44 14 -25 26
-54 26 -66 0 -11 6 -33 14 -48 31 -61 49 -278 35 -412 -14 -128 -23 -172 -53
-260 -14 -41 -26 -81 -26 -88 0 -16 -49 -101 -118 -206 -57 -85 -170 -206
-271 -289 -86 -72 -264 -185 -331 -211 -25 -10 -79 -35 -120 -56 -41 -21 -102
-47 -135 -58 -59 -20 -211 -107 -365 -209 -88 -59 -245 -219 -277 -283 -13
-25 -39 -88 -60 -140 -33 -85 -37 -106 -41 -205 -2 -82 1 -124 14 -165 9 -30
18 -83 21 -116 10 -133 -90 -244 -220 -244 -45 0 -63 6 -103 32 -99 67 -134
142 -154 329 -14 130 0 324 30 417 11 35 20 74 20 87 0 28 88 202 152 300 67
102 246 281 353 353 156 106 327 206 400 235 39 16 77 33 85 38 34 21 136 69
147 69 7 0 38 14 69 31 31 16 78 41 104 55 110 58 310 252 344 336 10 23 22
51 27 61 5 9 20 52 34 95 34 105 36 303 5 382 -14 35 -20 74 -20 129 0 71 3
82 30 119 30 42 103 92 135 92 76 0 -157 65 -390 109 -187 35 -271 47 -454 61
-153 11 -468 11 -613 -1z m1596 -2589 c50 -11 123 -31 161 -45 39 -15 84 -31
100 -36 17 -6 38 -15 48 -20 9 -5 43 -19 74 -31 73 -27 236 -112 288 -150 22
-16 74 -51 115 -78 41 -27 103 -73 136 -102 34 -29 92 -78 129 -108 143 -115
356 -342 483 -513 77 -103 219 -315 240 -357 7 -14 23 -43 36 -65 67 -114 107
-191 126 -243 11 -31 25 -66 30 -77 66 -142 89 -233 98 -387 15 -257 2 -409
-48 -548 -46 -131 -101 -245 -141 -293 -46 -56 -146 -121 -219 -143 -93 -27
-299 -25 -402 5 -193 55 -280 88 -463 171 -237 109 -338 144 -590 209 -85 22
-246 36 -400 35 -157 0 -245 -11 -355 -41 -30 -8 -73 -18 -95 -23 -22 -4 -71
-22 -110 -39 -38 -18 -97 -42 -130 -53 -158 -54 -307 -141 -480 -281 -50 -40
-171 -169 -251 -267 -51 -62 -234 -357 -234 -376 0 -3 -14 -38 -31 -77 -17
-40 -63 -144 -101 -232 -137 -314 -212 -438 -346 -567 -62 -60 -107 -94 -157
-117 -66 -32 -77 -34 -180 -35 -95 -1 -118 2 -165 23 -30 13 -75 32 -100 42
-65 28 -159 78 -208 111 -112 76 -272 245 -375 395 -50 72 -74 124 -159 338
-21 51 -78 268 -78 295 0 8 -7 27 -15 43 -8 15 -19 60 -25 100 -6 39 -16 99
-21 132 -40 250 -49 362 -44 590 3 127 9 259 14 295 27 190 34 232 47 315 9
50 24 116 35 148 10 31 19 67 19 80 0 13 4 27 9 33 4 5 14 32 20 59 6 28 25
77 40 110 16 33 39 83 51 110 83 191 158 305 289 436 100 99 151 131 294 181
53 19 83 22 202 21 103 0 152 -5 185 -16 25 -9 57 -17 71 -17 15 0 58 -13 95
-29 38 -16 83 -32 101 -36 18 -3 69 -22 115 -42 46 -19 101 -39 123 -43 22 -5
58 -15 81 -23 52 -19 289 -30 379 -18 75 10 207 59 271 102 21 14 53 34 69 44
56 35 147 130 200 210 46 69 86 139 148 260 8 17 25 48 36 70 12 22 33 65 47
95 40 87 133 219 204 288 67 66 172 142 195 142 7 0 35 10 62 22 112 50 275
56 457 18z"/>
<path d="M5390 4994 c-19 -7 -43 -13 -52 -13 -24 -1 -87 -39 -126 -75 -50 -46
-71 -94 -78 -182 -9 -113 16 -178 101 -260 70 -68 100 -79 212 -76 45 1 78 9
115 27 29 15 64 32 77 38 34 17 87 110 102 180 16 75 2 141 -49 226 -38 65
-109 124 -162 135 -61 12 -108 12 -140 0z"/>
<path d="M6015 4731 c-79 -10 -173 -67 -217 -132 -53 -78 -64 -125 -50 -216
20 -127 85 -204 212 -252 70 -27 121 -26 190 1 119 48 167 96 197 197 31 107
12 208 -55 291 -75 93 -159 127 -277 111z"/>
<path d="M5070 4367 c-105 -42 -210 -173 -210 -262 0 -53 28 -146 58 -194 15
-25 50 -64 79 -87 45 -37 60 -43 118 -49 85 -9 128 -3 196 28 65 29 112 80
147 155 22 49 24 63 19 139 -6 88 -25 133 -81 200 -70 83 -216 114 -326 70z"/>
<path d="M5709 4111 c-73 -15 -159 -90 -214 -188 -32 -58 -34 -136 -5 -193 11
-22 20 -45 20 -53 0 -20 66 -93 113 -126 61 -41 129 -55 217 -42 39 5 81 17
93 25 12 9 38 27 58 40 21 14 48 48 67 84 28 53 32 69 32 141 0 62 -5 91 -20
121 -11 22 -20 45 -20 53 0 26 -70 95 -122 121 -54 27 -135 33 -219 17z"/>
<path d="M2885 3951 c-11 -10 -100 -48 -200 -86 -207 -79 -213 -83 -182 -130
7 -11 23 -47 36 -80 13 -33 43 -108 67 -167 46 -113 52 -142 32 -155 -15 -9
-154 -68 -218 -93 -72 -27 -82 -31 -143 -58 -63 -27 -64 -30 -26 -102 11 -19
19 -38 19 -43 0 -4 25 -70 55 -146 30 -76 55 -143 55 -149 0 -5 6 -15 13 -21
11 -8 35 -2 103 25 49 20 118 47 153 60 36 13 88 35 117 49 29 14 58 25 63 25
17 0 115 -221 162 -363 12 -36 27 -68 34 -71 8 -3 62 15 122 40 59 25 155 64
211 86 57 22 106 47 109 56 4 8 -1 29 -10 46 -9 17 -28 60 -41 96 -14 36 -45
115 -70 175 -25 61 -46 113 -46 116 0 4 15 12 33 19 17 6 55 21 82 32 86 36
108 45 170 68 117 44 135 53 141 72 3 11 0 27 -8 36 -14 17 -20 31 -104 247
-50 130 -58 145 -82 145 -17 0 -272 -100 -334 -131 -57 -29 -81 -25 -101 16
-9 20 -17 40 -17 46 0 6 -6 25 -14 42 -24 54 -63 149 -94 227 -24 62 -33 76
-53 78 -13 2 -29 -1 -34 -7z"/>
</g>
</svg>
