<svg id="visual" viewBox="0 0 900 600" width="900" height="600" xmlns="http://www.w3.org/2000/svg" xmlns:xlink="http://www.w3.org/1999/xlink" version="1.1"><rect x="0" y="0" width="900" height="600" fill="#004AAD"></rect><path d="M0 514L25 514C50 514 100 514 150 505.8C200 497.7 250 481.3 300 474.5C350 467.7 400 470.3 450 475.7C500 481 550 489 600 494.7C650 500.3 700 503.7 750 492.8C800 482 850 457 875 444.5L900 432L900 601L875 601C850 601 800 601 750 601C700 601 650 601 600 601C550 601 500 601 450 601C400 601 350 601 300 601C250 601 200 601 150 601C100 601 50 601 25 601L0 601Z" fill="#ffffff" stroke-linecap="round" stroke-linejoin="miter"></path></svg>