<?xml version="1.0" standalone="no"?><svg xmlns="http://www.w3.org/2000/svg" viewBox="0 0 1440 320"><path fill="#fff" fill-opacity="1"  d="M0,64L34.3,96C68.6,128,137,192,206,218.7C274.3,245,343,235,411,208C480,181,549,139,617,133.3C685.7,128,754,160,823,192C891.4,224,960,256,1029,229.3C1097.1,203,1166,117,1234,85.3C1302.9,53,1371,75,1406,85.3L1440,96L1440,320L1405.7,320C1371.4,320,1303,320,1234,320C1165.7,320,1097,320,1029,320C960,320,891,320,823,320C754.3,320,686,320,617,320C548.6,320,480,320,411,320C342.9,320,274,320,206,320C137.1,320,69,320,34,320L0,320Z"></path></svg>